PathFileType	4	(X/Y/Z)	Patient4_TMGait_0pt3_02_right_14.trc.trc
DataRate	CameraRate	NumFrames	NumMarkers	Units	OrigDataRate	OrigDataStartFrame	OrigNumFrames
54.687500000000	54.687500000000	4	33	mm	54.687500000000	89	       141
Frame#	Time	Sacral			L.Shoulder			Chest			R.Shoulder			Neck			R.ASIS			L.ASIS			R.Thigh.Superior			R.Thigh.Lateral			R.Thigh.Inferior			R.Patella			L.Thigh.Superior			L.Thigh.Lateral			L.Thigh.Inferior			L.Patella			L.Shank.Superior			L.Shank.Lateral			L.Shank.Inferior			R.Shank.Superior			R.Shank.Lateral			R.Shank.Inferior			R.Heel			R.Midfoot.Superior			R.Midfoot.Lateral			R.Toe			L.Heel			L.Midfoot.Lateral			L.Midfoot.Superior			L.Toe			L.Elbow			L.Wrist			R.Elbow			R.Wrist			
		X1	Y1	Z1	X2	Y2	Z2	X3	Y3	Z3	X4	Y4	Z4	X5	Y5	Z5	X6	Y6	Z6	X7	Y7	Z7	X8	Y8	Z8	X9	Y9	Z9	X10	Y10	Z10	X11	Y11	Z11	X12	Y12	Z12	X13	Y13	Z13	X14	Y14	Z14	X15	Y15	Z15	X16	Y16	Z16	X17	Y17	Z17	X18	Y18	Z18	X19	Y19	Z19	X20	Y20	Z20	X21	Y21	Z21	X22	Y22	Z22	X23	Y23	Z23	X24	Y24	Z24	X25	Y25	Z25	X26	Y26	Z26	X27	Y27	Z27	X28	Y28	Z28	X29	Y29	Z29	X30	Y30	Z30	X31	Y31	Z31	X32	Y32	Z32	X33	Y33	Z33	

89	27.899142857143	694.101131877008	1011.660147376244	487.893254595925	837.287167942933	1421.354898155123	259.531868070622	969.100772095381	1364.494825406478	403.334577696265	917.500146139524	1453.089051276416	582.343434909071	845.771710710515	1493.856041874820	413.287740921103	932.551446810390	937.671261458940	574.580045092060	887.878555619713	962.478405196060	305.885998196002	932.703639387737	722.439597346136	547.570301157459	838.342998690523	623.739927804145	615.712865719038	896.851526766563	559.438128976354	531.527615563008	877.826185957943	462.578546767337	544.319400511606	952.363863054175	758.495178603243	341.111855934037	873.426011762325	634.766758450989	283.640753893676	964.983127877082	566.278908213886	347.801752948874	969.921328386531	497.620539007058	356.796450018506	948.798046394931	424.234848586149	348.965852799353	867.481094204927	303.311154940206	298.570689688689	927.601956288024	196.703277187681	370.931780572245	815.872498364161	389.600554767210	554.424169405664	713.916224402215	319.585028476112	621.257480930391	717.987827659077	214.217667097205	563.008924504647	534.527195866858	90.862222901048	541.510838545691	714.347228702766	105.187825581798	576.807397126260	614.669603887887	65.366624166747	615.143019685964	817.139582879550	36.181162595481	605.946210023208	808.242326080940	37.155643097174	411.123554763235	884.941186178700	35.082302909012	332.385055060113	965.760182484435	98.070864154046	361.241775010472	1095.430664723515	50.909402137240	338.122000416294	760.175523190338	1069.887368045504	171.783509995764	860.321982372427	828.167942086279	159.328973687449	1083.062049846141	1163.340958863763	706.510744023330	1306.870400639681	1254.546466317341	637.082966416408	
90	27.917428571429	693.901210911099	1011.768571543376	484.353978952314	838.306061211702	1421.822205044046	257.128501075931	968.906972288631	1365.259550268304	402.137743709500	915.621676636375	1453.871216820854	580.635582498929	845.350215440213	1494.444628589609	411.115206896948	931.907546645367	938.274907487209	572.713054043219	889.035822604442	963.071644294025	303.725310658006	934.356746406561	723.437219891439	546.100161533137	840.928874375470	623.964533912583	614.013580030911	900.976794535580	559.828673321287	530.524610554523	882.431618344874	461.725947990369	544.335401865973	952.429828815052	757.923238719353	339.614081310594	872.975121064788	634.532113537902	282.332030867598	963.504224085524	565.571928346463	347.338695253804	967.972097362505	496.881920459067	356.689978624457	946.398072783497	423.630177058369	348.912692580859	864.673582730878	303.148042256409	298.235645868572	923.324873974933	196.261479690433	371.188555807356	818.737511539165	389.697666938801	554.144167638593	714.805419195730	322.057977714829	620.327889900630	717.402222600288	216.118022573909	562.982806146101	531.439909632079	96.676710330407	541.306968999702	711.603280477372	105.924658159955	577.055966005387	610.738849036117	68.732912804925	615.019084381236	812.019189364309	36.129192188500	605.904541977481	802.756622851189	37.199970983975	411.178010727660	879.453918778200	35.130131171188	332.476303573121	960.447961056407	97.720282416303	361.552625068247	1090.035481188126	50.337153808676	338.231574259231	774.569943861454	1068.401098676746	164.799849725197	880.883258834472	829.490371886422	152.582791294862	1077.574140787902	1161.175757212283	704.969933704919	1305.275803413947	1244.850173008175	637.621772816437	
91	27.935714285714	693.622978607728	1011.639378424866	480.609435302558	839.344714934550	1422.356403153432	254.979971748446	968.612209660016	1365.951740654105	401.232875031744	913.491078439270	1454.378118098575	579.249817867986	844.799879659467	1494.921918199523	409.267009113777	931.168470788719	938.709510072958	570.738835235220	890.228161007244	963.573426831227	301.459283870995	936.271363142782	724.379634310875	544.585959651146	843.950948340574	624.049064772014	612.285777877322	905.707296069476	560.150138552912	529.543828127174	887.761232768672	460.792089253893	544.412225655848	952.740844877098	757.405856119804	338.178111575116	872.984934846704	634.206146622641	281.019324980810	962.498007460000	564.874231325737	346.969987160546	966.590241337695	496.084245768313	356.661504927456	944.434220555337	422.934995177726	348.948476577929	862.231361150475	302.981795715088	297.942903711332	919.218498238909	195.763175271659	371.493039982449	822.303634390577	389.680845228897	553.940811201872	716.346486472533	324.598021519630	619.444458947566	717.366683120178	218.101876306643	563.047782817129	528.821838632487	103.024565347201	541.186889313705	709.148049350067	106.638542057638	577.400172097309	607.068969892658	72.379355825522	614.958760351570	806.868092719840	36.069156162363	605.851058210668	797.283718858053	37.260543457032	411.230207557514	873.988238509895	35.195670791217	332.580117081141	955.173377259427	97.382084505045	361.889231240361	1084.675375749828	49.696578617826	338.364770753199	789.434069717619	1067.507805407918	158.072262978548	901.398318685742	831.391865775853	146.400212791064	1071.506609021952	1158.509919689957	703.626420148511	1303.449717671961	1233.063807614811	638.870226313685	
92	27.954000000000	693.256091167336	1011.249534006175	476.631963978427	840.436630700643	1422.945780584278	253.092241833448	968.230756188970	1366.529148539268	400.627177717630	911.111647436277	1454.543065815709	578.193610231769	844.137481416767	1495.261016095863	407.742882924600	930.322033913772	938.962998247325	568.657365971546	891.454061306151	963.941346364652	299.084625094128	938.469755287665	725.275439639331	543.009825199348	847.450629999468	624.007680062890	610.521908645582	911.063544492677	560.431425439507	528.554190167805	893.855297957855	459.820925682799	544.501669819933	953.322961493367	756.934940069007	336.790766808788	873.499483346398	633.761253619273	279.714719384080	962.041434580941	564.178695554142	346.690274784384	965.867638611954	495.210279668547	356.699323112075	942.968413930142	422.119124959363	349.064600150995	860.172419085924	302.805372776068	297.704704929842	915.292007850890	195.197964462684	371.838093824719	826.622361663981	389.581399238570	553.788850387444	718.627575564297	327.244528917426	618.615124128688	717.953949510025	220.225144919562	563.205155395203	526.804245779081	110.060637842668	541.166760740072	707.015595306821	107.371354901870	577.839743051574	603.729193234028	76.432766307905	614.968711358206	801.656635348038	35.953886475779	605.789151266440	791.822745020727	37.335793536426	411.277920082929	868.542536985434	35.276899862237	332.692999032341	949.929655551924	97.071951359928	362.240734437275	1079.347103366227	49.001565264556	338.513314255478	804.488844635329	1067.260166640634	151.706848185608	921.875405044682	834.009514173769	140.771977651657	1064.889693363900	1155.299715202652	702.448866005528	1301.250525114059	1219.000983980938	640.810307509533	
